<svg id="Layer_1" data-name="Layer 1" xmlns="http://www.w3.org/2000/svg" width="640.3876" height="234.9493" viewBox="0 0 640.3876 234.9493">
  <defs>
    <style>
      .cls-1 {
        fill: none;
        stroke: #000;
        stroke-miterlimit: 10;
      }

      .cls-2 {
        font-size: 11.8155px;
        fill: #272525;
        font-family: Helvetica, Helvetica;
      }
    </style>
  </defs>
  <title>Lindenmayer-trees</title>
  <line class="cls-1" x1="19.3783" y1="218.8886" x2="19.3783" y2="125.0399"/>
  <g>
    <line class="cls-1" x1="69.9508" y1="218.7273" x2="69.9508" y2="124.8786"/>
    <line class="cls-1" x1="69.9508" y1="124.8786" x2="50.6919" y2="71.9653"/>
    <line class="cls-1" x1="69.9508" y1="124.8786" x2="89.2096" y2="71.9653"/>
    <g>
      <line class="cls-1" x1="149.6901" y1="218.647" x2="149.6901" y2="124.7983"/>
      <line class="cls-1" x1="149.6901" y1="124.7983" x2="130.4312" y2="71.885"/>
      <line class="cls-1" x1="149.6901" y1="124.7983" x2="168.9489" y2="71.885"/>
      <line class="cls-1" x1="149.6901" y1="124.7983" x2="130.4312" y2="71.885"/>
      <line class="cls-1" x1="130.4312" y1="71.885" x2="108.7143" y2="46.0038"/>
      <line class="cls-1" x1="130.4312" y1="71.885" x2="130.4312" y2="38.0995"/>
      <line class="cls-1" x1="149.6901" y1="124.7983" x2="168.9489" y2="71.885"/>
      <line class="cls-1" x1="168.9489" y1="71.885" x2="168.9489" y2="38.0995"/>
      <line class="cls-1" x1="168.9489" y1="71.885" x2="190.6658" y2="46.0038"/>
    </g>
    <g>
      <line class="cls-1" x1="267.6012" y1="218.5371" x2="267.6012" y2="124.6884"/>
      <line class="cls-1" x1="267.6012" y1="124.6884" x2="248.3424" y2="71.7751"/>
      <line class="cls-1" x1="267.6012" y1="124.6884" x2="286.8601" y2="71.7751"/>
      <line class="cls-1" x1="267.6012" y1="124.6884" x2="248.3424" y2="71.7751"/>
      <line class="cls-1" x1="248.3424" y1="71.7751" x2="226.6255" y2="45.8939"/>
      <line class="cls-1" x1="248.3424" y1="71.7751" x2="248.3424" y2="37.9896"/>
      <line class="cls-1" x1="267.6012" y1="124.6884" x2="286.8601" y2="71.7751"/>
      <line class="cls-1" x1="286.8601" y1="71.7751" x2="286.8601" y2="37.9896"/>
      <line class="cls-1" x1="286.8601" y1="71.7751" x2="308.577" y2="45.8939"/>
      <line class="cls-1" x1="267.6012" y1="124.6884" x2="248.3424" y2="71.7751"/>
      <line class="cls-1" x1="248.3424" y1="71.7751" x2="226.6255" y2="45.8939"/>
      <line class="cls-1" x1="248.3424" y1="71.7751" x2="248.3424" y2="37.9896"/>
      <line class="cls-1" x1="248.3424" y1="71.7751" x2="226.6255" y2="45.8939"/>
      <line class="cls-1" x1="226.6255" y1="45.8939" x2="209.07" y2="35.7582"/>
      <line class="cls-1" x1="226.6255" y1="45.8939" x2="219.6922" y2="26.8451"/>
      <line class="cls-1" x1="248.3424" y1="71.7751" x2="248.3424" y2="37.9896"/>
      <line class="cls-1" x1="248.3424" y1="37.9896" x2="241.4092" y2="18.9407"/>
      <line class="cls-1" x1="248.3424" y1="37.9896" x2="255.2755" y2="18.9407"/>
      <line class="cls-1" x1="267.6012" y1="124.6884" x2="286.8601" y2="71.7751"/>
      <line class="cls-1" x1="286.8601" y1="71.7751" x2="286.8601" y2="37.9896"/>
      <line class="cls-1" x1="286.8601" y1="71.7751" x2="308.577" y2="45.8939"/>
      <line class="cls-1" x1="286.8601" y1="71.7751" x2="286.8601" y2="37.9896"/>
      <line class="cls-1" x1="286.8601" y1="37.9896" x2="279.9269" y2="18.9407"/>
      <line class="cls-1" x1="286.8601" y1="37.9896" x2="293.7933" y2="18.9407"/>
      <line class="cls-1" x1="286.8601" y1="71.7751" x2="308.577" y2="45.8939"/>
      <line class="cls-1" x1="308.577" y1="45.8939" x2="315.5102" y2="26.8451"/>
      <line class="cls-1" x1="308.577" y1="45.8939" x2="326.1325" y2="35.7582"/>
    </g>
    <g>
      <line class="cls-1" x1="406.1984" y1="218.8886" x2="406.1984" y2="125.0399"/>
      <line class="cls-1" x1="406.1984" y1="125.0399" x2="386.9395" y2="72.1266"/>
      <line class="cls-1" x1="406.1984" y1="125.0399" x2="425.4573" y2="72.1266"/>
      <line class="cls-1" x1="406.1984" y1="125.0399" x2="386.9395" y2="72.1266"/>
      <line class="cls-1" x1="386.9395" y1="72.1266" x2="365.2226" y2="46.2453"/>
      <line class="cls-1" x1="386.9395" y1="72.1266" x2="386.9395" y2="38.341"/>
      <line class="cls-1" x1="406.1984" y1="125.0399" x2="425.4573" y2="72.1266"/>
      <line class="cls-1" x1="425.4573" y1="72.1266" x2="425.4573" y2="38.341"/>
      <line class="cls-1" x1="425.4573" y1="72.1266" x2="447.1742" y2="46.2453"/>
      <line class="cls-1" x1="406.1984" y1="125.0399" x2="386.9395" y2="72.1266"/>
      <line class="cls-1" x1="386.9395" y1="72.1266" x2="365.2226" y2="46.2453"/>
      <line class="cls-1" x1="386.9395" y1="72.1266" x2="386.9395" y2="38.341"/>
      <line class="cls-1" x1="386.9395" y1="72.1266" x2="365.2226" y2="46.2453"/>
      <line class="cls-1" x1="365.2226" y1="46.2453" x2="347.6671" y2="36.1097"/>
      <line class="cls-1" x1="365.2226" y1="46.2453" x2="358.2894" y2="27.1965"/>
      <line class="cls-1" x1="386.9395" y1="72.1266" x2="386.9395" y2="38.341"/>
      <line class="cls-1" x1="386.9395" y1="38.341" x2="380.0063" y2="19.2922"/>
      <line class="cls-1" x1="386.9395" y1="38.341" x2="393.8727" y2="19.2922"/>
      <line class="cls-1" x1="406.1984" y1="125.0399" x2="425.4573" y2="72.1266"/>
      <line class="cls-1" x1="425.4573" y1="72.1266" x2="425.4573" y2="38.341"/>
      <line class="cls-1" x1="425.4573" y1="72.1266" x2="447.1742" y2="46.2453"/>
      <line class="cls-1" x1="425.4573" y1="72.1266" x2="425.4573" y2="38.341"/>
      <line class="cls-1" x1="425.4573" y1="38.341" x2="418.5241" y2="19.2922"/>
      <line class="cls-1" x1="425.4573" y1="38.341" x2="432.3905" y2="19.2922"/>
      <line class="cls-1" x1="425.4573" y1="72.1266" x2="447.1742" y2="46.2453"/>
      <line class="cls-1" x1="447.1742" y1="46.2453" x2="454.1074" y2="27.1965"/>
      <line class="cls-1" x1="447.1742" y1="46.2453" x2="464.7297" y2="36.1097"/>
      <line class="cls-1" x1="406.1984" y1="125.0399" x2="386.9395" y2="72.1266"/>
      <line class="cls-1" x1="386.9395" y1="72.1266" x2="365.2226" y2="46.2453"/>
      <line class="cls-1" x1="386.9395" y1="72.1266" x2="386.9395" y2="38.341"/>
      <line class="cls-1" x1="386.9395" y1="72.1266" x2="365.2226" y2="46.2453"/>
      <line class="cls-1" x1="365.2226" y1="46.2453" x2="347.6671" y2="36.1097"/>
      <line class="cls-1" x1="365.2226" y1="46.2453" x2="358.2894" y2="27.1965"/>
      <line class="cls-1" x1="386.9395" y1="72.1266" x2="386.9395" y2="38.341"/>
      <line class="cls-1" x1="386.9395" y1="38.341" x2="380.0063" y2="19.2922"/>
      <line class="cls-1" x1="386.9395" y1="38.341" x2="393.8727" y2="19.2922"/>
      <line class="cls-1" x1="386.9395" y1="72.1266" x2="365.2226" y2="46.2453"/>
      <line class="cls-1" x1="365.2226" y1="46.2453" x2="347.6671" y2="36.1097"/>
      <line class="cls-1" x1="365.2226" y1="46.2453" x2="358.2894" y2="27.1965"/>
      <line class="cls-1" x1="365.2226" y1="46.2453" x2="347.6671" y2="36.1097"/>
      <line class="cls-1" x1="347.6671" y1="36.1097" x2="335.6891" y2="33.9976"/>
      <line class="cls-1" x1="347.6671" y1="36.1097" x2="339.8491" y2="26.7924"/>
      <line class="cls-1" x1="365.2226" y1="46.2453" x2="358.2894" y2="27.1965"/>
      <line class="cls-1" x1="358.2894" y1="27.1965" x2="350.4713" y2="17.8793"/>
      <line class="cls-1" x1="358.2894" y1="27.1965" x2="358.2894" y2="15.0338"/>
      <line class="cls-1" x1="386.9395" y1="72.1266" x2="386.9395" y2="38.341"/>
      <line class="cls-1" x1="386.9395" y1="38.341" x2="380.0063" y2="19.2922"/>
      <line class="cls-1" x1="386.9395" y1="38.341" x2="393.8727" y2="19.2922"/>
      <line class="cls-1" x1="386.9395" y1="38.341" x2="380.0063" y2="19.2922"/>
      <line class="cls-1" x1="380.0063" y1="19.2922" x2="372.1882" y2="9.975"/>
      <line class="cls-1" x1="380.0063" y1="19.2922" x2="380.0063" y2="7.1294"/>
      <line class="cls-1" x1="386.9395" y1="38.341" x2="393.8727" y2="19.2922"/>
      <line class="cls-1" x1="393.8727" y1="19.2922" x2="393.8727" y2="7.1294"/>
      <line class="cls-1" x1="393.8727" y1="19.2922" x2="401.6908" y2="9.975"/>
      <line class="cls-1" x1="406.1984" y1="125.0399" x2="425.4573" y2="72.1266"/>
      <line class="cls-1" x1="425.4573" y1="72.1266" x2="425.4573" y2="38.341"/>
      <line class="cls-1" x1="425.4573" y1="72.1266" x2="447.1742" y2="46.2453"/>
      <line class="cls-1" x1="425.4573" y1="72.1266" x2="425.4573" y2="38.341"/>
      <line class="cls-1" x1="425.4573" y1="38.341" x2="418.5241" y2="19.2922"/>
      <line class="cls-1" x1="425.4573" y1="38.341" x2="432.3905" y2="19.2922"/>
      <line class="cls-1" x1="425.4573" y1="72.1266" x2="447.1742" y2="46.2453"/>
      <line class="cls-1" x1="447.1742" y1="46.2453" x2="454.1074" y2="27.1965"/>
      <line class="cls-1" x1="447.1742" y1="46.2453" x2="464.7297" y2="36.1097"/>
      <line class="cls-1" x1="425.4573" y1="72.1266" x2="425.4573" y2="38.341"/>
      <line class="cls-1" x1="425.4573" y1="38.341" x2="418.5241" y2="19.2922"/>
      <line class="cls-1" x1="425.4573" y1="38.341" x2="432.3905" y2="19.2922"/>
      <line class="cls-1" x1="425.4573" y1="38.341" x2="418.5241" y2="19.2922"/>
      <line class="cls-1" x1="418.5241" y1="19.2922" x2="410.706" y2="9.975"/>
      <line class="cls-1" x1="418.5241" y1="19.2922" x2="418.5241" y2="7.1294"/>
      <line class="cls-1" x1="425.4573" y1="38.341" x2="432.3905" y2="19.2922"/>
      <line class="cls-1" x1="432.3905" y1="19.2922" x2="432.3905" y2="7.1294"/>
      <line class="cls-1" x1="432.3905" y1="19.2922" x2="440.2086" y2="9.975"/>
      <line class="cls-1" x1="425.4573" y1="72.1266" x2="447.1742" y2="46.2453"/>
      <line class="cls-1" x1="447.1742" y1="46.2453" x2="454.1074" y2="27.1965"/>
      <line class="cls-1" x1="447.1742" y1="46.2453" x2="464.7297" y2="36.1097"/>
      <line class="cls-1" x1="447.1742" y1="46.2453" x2="454.1074" y2="27.1965"/>
      <line class="cls-1" x1="454.1074" y1="27.1965" x2="454.1074" y2="15.0338"/>
      <line class="cls-1" x1="454.1074" y1="27.1965" x2="461.9255" y2="17.8793"/>
      <line class="cls-1" x1="447.1742" y1="46.2453" x2="464.7297" y2="36.1097"/>
      <line class="cls-1" x1="464.7297" y1="36.1097" x2="472.5478" y2="26.7924"/>
      <line class="cls-1" x1="464.7297" y1="36.1097" x2="476.7077" y2="33.9976"/>
    </g>
    <g>
      <line class="cls-1" x1="562.6047" y1="218.7877" x2="562.6047" y2="124.939"/>
      <line class="cls-1" x1="562.6047" y1="124.939" x2="543.3458" y2="72.0257"/>
      <line class="cls-1" x1="562.6047" y1="124.939" x2="581.8635" y2="72.0257"/>
      <line class="cls-1" x1="562.6047" y1="124.939" x2="543.3458" y2="72.0257"/>
      <line class="cls-1" x1="543.3458" y1="72.0257" x2="521.6289" y2="46.1445"/>
      <line class="cls-1" x1="543.3458" y1="72.0257" x2="543.3458" y2="38.2402"/>
      <line class="cls-1" x1="562.6047" y1="124.939" x2="581.8635" y2="72.0257"/>
      <line class="cls-1" x1="581.8635" y1="72.0257" x2="581.8635" y2="38.2402"/>
      <line class="cls-1" x1="581.8635" y1="72.0257" x2="603.5804" y2="46.1445"/>
      <line class="cls-1" x1="562.6047" y1="124.939" x2="543.3458" y2="72.0257"/>
      <line class="cls-1" x1="543.3458" y1="72.0257" x2="521.6289" y2="46.1445"/>
      <line class="cls-1" x1="543.3458" y1="72.0257" x2="543.3458" y2="38.2402"/>
      <line class="cls-1" x1="543.3458" y1="72.0257" x2="521.6289" y2="46.1445"/>
      <line class="cls-1" x1="521.6289" y1="46.1445" x2="504.0734" y2="36.0088"/>
      <line class="cls-1" x1="521.6289" y1="46.1445" x2="514.6956" y2="27.0957"/>
      <line class="cls-1" x1="543.3458" y1="72.0257" x2="543.3458" y2="38.2402"/>
      <line class="cls-1" x1="543.3458" y1="38.2402" x2="536.4126" y2="19.1914"/>
      <line class="cls-1" x1="543.3458" y1="38.2402" x2="550.2789" y2="19.1914"/>
      <line class="cls-1" x1="562.6047" y1="124.939" x2="581.8635" y2="72.0257"/>
      <line class="cls-1" x1="581.8635" y1="72.0257" x2="581.8635" y2="38.2402"/>
      <line class="cls-1" x1="581.8635" y1="72.0257" x2="603.5804" y2="46.1445"/>
      <line class="cls-1" x1="581.8635" y1="72.0257" x2="581.8635" y2="38.2402"/>
      <line class="cls-1" x1="581.8635" y1="38.2402" x2="574.9303" y2="19.1914"/>
      <line class="cls-1" x1="581.8635" y1="38.2402" x2="588.7967" y2="19.1914"/>
      <line class="cls-1" x1="581.8635" y1="72.0257" x2="603.5804" y2="46.1445"/>
      <line class="cls-1" x1="603.5804" y1="46.1445" x2="610.5137" y2="27.0957"/>
      <line class="cls-1" x1="603.5804" y1="46.1445" x2="621.1359" y2="36.0088"/>
      <line class="cls-1" x1="562.6047" y1="124.939" x2="543.3458" y2="72.0257"/>
      <line class="cls-1" x1="543.3458" y1="72.0257" x2="521.6289" y2="46.1445"/>
      <line class="cls-1" x1="543.3458" y1="72.0257" x2="543.3458" y2="38.2402"/>
      <line class="cls-1" x1="543.3458" y1="72.0257" x2="521.6289" y2="46.1445"/>
      <line class="cls-1" x1="521.6289" y1="46.1445" x2="504.0734" y2="36.0088"/>
      <line class="cls-1" x1="521.6289" y1="46.1445" x2="514.6956" y2="27.0957"/>
      <line class="cls-1" x1="543.3458" y1="72.0257" x2="543.3458" y2="38.2402"/>
      <line class="cls-1" x1="543.3458" y1="38.2402" x2="536.4126" y2="19.1914"/>
      <line class="cls-1" x1="543.3458" y1="38.2402" x2="550.2789" y2="19.1914"/>
      <line class="cls-1" x1="543.3458" y1="72.0257" x2="521.6289" y2="46.1445"/>
      <line class="cls-1" x1="521.6289" y1="46.1445" x2="504.0734" y2="36.0088"/>
      <line class="cls-1" x1="521.6289" y1="46.1445" x2="514.6956" y2="27.0957"/>
      <line class="cls-1" x1="521.6289" y1="46.1445" x2="504.0734" y2="36.0088"/>
      <line class="cls-1" x1="504.0734" y1="36.0088" x2="492.0954" y2="33.8968"/>
      <line class="cls-1" x1="504.0734" y1="36.0088" x2="496.2553" y2="26.6916"/>
      <line class="cls-1" x1="521.6289" y1="46.1445" x2="514.6956" y2="27.0957"/>
      <line class="cls-1" x1="514.6956" y1="27.0957" x2="506.8776" y2="17.7784"/>
      <line class="cls-1" x1="514.6956" y1="27.0957" x2="514.6956" y2="14.9329"/>
      <line class="cls-1" x1="543.3458" y1="72.0257" x2="543.3458" y2="38.2402"/>
      <line class="cls-1" x1="543.3458" y1="38.2402" x2="536.4126" y2="19.1914"/>
      <line class="cls-1" x1="543.3458" y1="38.2402" x2="550.2789" y2="19.1914"/>
      <line class="cls-1" x1="543.3458" y1="38.2402" x2="536.4126" y2="19.1914"/>
      <line class="cls-1" x1="536.4126" y1="19.1914" x2="528.5945" y2="9.8741"/>
      <line class="cls-1" x1="536.4126" y1="19.1914" x2="536.4126" y2="7.0286"/>
      <line class="cls-1" x1="543.3458" y1="38.2402" x2="550.2789" y2="19.1914"/>
      <line class="cls-1" x1="550.2789" y1="19.1914" x2="550.2789" y2="7.0286"/>
      <line class="cls-1" x1="550.2789" y1="19.1914" x2="558.097" y2="9.8741"/>
      <line class="cls-1" x1="562.6047" y1="124.939" x2="581.8635" y2="72.0257"/>
      <line class="cls-1" x1="581.8635" y1="72.0257" x2="581.8635" y2="38.2402"/>
      <line class="cls-1" x1="581.8635" y1="72.0257" x2="603.5804" y2="46.1445"/>
      <line class="cls-1" x1="581.8635" y1="72.0257" x2="581.8635" y2="38.2402"/>
      <line class="cls-1" x1="581.8635" y1="38.2402" x2="574.9303" y2="19.1914"/>
      <line class="cls-1" x1="581.8635" y1="38.2402" x2="588.7967" y2="19.1914"/>
      <line class="cls-1" x1="581.8635" y1="72.0257" x2="603.5804" y2="46.1445"/>
      <line class="cls-1" x1="603.5804" y1="46.1445" x2="610.5137" y2="27.0957"/>
      <line class="cls-1" x1="603.5804" y1="46.1445" x2="621.1359" y2="36.0088"/>
      <line class="cls-1" x1="581.8635" y1="72.0257" x2="581.8635" y2="38.2402"/>
      <line class="cls-1" x1="581.8635" y1="38.2402" x2="574.9303" y2="19.1914"/>
      <line class="cls-1" x1="581.8635" y1="38.2402" x2="588.7967" y2="19.1914"/>
      <line class="cls-1" x1="581.8635" y1="38.2402" x2="574.9303" y2="19.1914"/>
      <line class="cls-1" x1="574.9303" y1="19.1914" x2="567.1122" y2="9.8741"/>
      <line class="cls-1" x1="574.9303" y1="19.1914" x2="574.9303" y2="7.0286"/>
      <line class="cls-1" x1="581.8635" y1="38.2402" x2="588.7967" y2="19.1914"/>
      <line class="cls-1" x1="588.7967" y1="19.1914" x2="588.7967" y2="7.0286"/>
      <line class="cls-1" x1="588.7967" y1="19.1914" x2="596.6148" y2="9.8741"/>
      <line class="cls-1" x1="581.8635" y1="72.0257" x2="603.5804" y2="46.1445"/>
      <line class="cls-1" x1="603.5804" y1="46.1445" x2="610.5137" y2="27.0957"/>
      <line class="cls-1" x1="603.5804" y1="46.1445" x2="621.1359" y2="36.0088"/>
      <line class="cls-1" x1="603.5804" y1="46.1445" x2="610.5137" y2="27.0957"/>
      <line class="cls-1" x1="610.5137" y1="27.0957" x2="610.5137" y2="14.9329"/>
      <line class="cls-1" x1="610.5137" y1="27.0957" x2="618.3317" y2="17.7784"/>
      <line class="cls-1" x1="603.5804" y1="46.1445" x2="621.1359" y2="36.0088"/>
      <line class="cls-1" x1="621.1359" y1="36.0088" x2="628.954" y2="26.6916"/>
      <line class="cls-1" x1="621.1359" y1="36.0088" x2="633.1139" y2="33.8968"/>
      <line class="cls-1" x1="562.6047" y1="124.939" x2="543.3458" y2="72.0257"/>
      <line class="cls-1" x1="543.3458" y1="72.0257" x2="521.6289" y2="46.1445"/>
      <line class="cls-1" x1="543.3458" y1="72.0257" x2="543.3458" y2="38.2402"/>
      <line class="cls-1" x1="543.3458" y1="72.0257" x2="521.6289" y2="46.1445"/>
      <line class="cls-1" x1="521.6289" y1="46.1445" x2="504.0734" y2="36.0088"/>
      <line class="cls-1" x1="521.6289" y1="46.1445" x2="514.6956" y2="27.0957"/>
      <line class="cls-1" x1="543.3458" y1="72.0257" x2="543.3458" y2="38.2402"/>
      <line class="cls-1" x1="543.3458" y1="38.2402" x2="536.4126" y2="19.1914"/>
      <line class="cls-1" x1="543.3458" y1="38.2402" x2="550.2789" y2="19.1914"/>
      <line class="cls-1" x1="543.3458" y1="72.0257" x2="521.6289" y2="46.1445"/>
      <line class="cls-1" x1="521.6289" y1="46.1445" x2="504.0734" y2="36.0088"/>
      <line class="cls-1" x1="521.6289" y1="46.1445" x2="514.6956" y2="27.0957"/>
      <line class="cls-1" x1="521.6289" y1="46.1445" x2="504.0734" y2="36.0088"/>
      <line class="cls-1" x1="504.0734" y1="36.0088" x2="492.0954" y2="33.8968"/>
      <line class="cls-1" x1="504.0734" y1="36.0088" x2="496.2553" y2="26.6916"/>
      <line class="cls-1" x1="521.6289" y1="46.1445" x2="514.6956" y2="27.0957"/>
      <line class="cls-1" x1="514.6956" y1="27.0957" x2="506.8776" y2="17.7784"/>
      <line class="cls-1" x1="514.6956" y1="27.0957" x2="514.6956" y2="14.9329"/>
      <line class="cls-1" x1="543.3458" y1="72.0257" x2="543.3458" y2="38.2402"/>
      <line class="cls-1" x1="543.3458" y1="38.2402" x2="536.4126" y2="19.1914"/>
      <line class="cls-1" x1="543.3458" y1="38.2402" x2="550.2789" y2="19.1914"/>
      <line class="cls-1" x1="543.3458" y1="38.2402" x2="536.4126" y2="19.1914"/>
      <line class="cls-1" x1="536.4126" y1="19.1914" x2="528.5945" y2="9.8741"/>
      <line class="cls-1" x1="536.4126" y1="19.1914" x2="536.4126" y2="7.0286"/>
      <line class="cls-1" x1="543.3458" y1="38.2402" x2="550.2789" y2="19.1914"/>
      <line class="cls-1" x1="550.2789" y1="19.1914" x2="550.2789" y2="7.0286"/>
      <line class="cls-1" x1="550.2789" y1="19.1914" x2="558.097" y2="9.8741"/>
      <line class="cls-1" x1="543.3458" y1="72.0257" x2="521.6289" y2="46.1445"/>
      <line class="cls-1" x1="521.6289" y1="46.1445" x2="504.0734" y2="36.0088"/>
      <line class="cls-1" x1="521.6289" y1="46.1445" x2="514.6956" y2="27.0957"/>
      <line class="cls-1" x1="521.6289" y1="46.1445" x2="504.0734" y2="36.0088"/>
      <line class="cls-1" x1="504.0734" y1="36.0088" x2="492.0954" y2="33.8968"/>
      <line class="cls-1" x1="504.0734" y1="36.0088" x2="496.2553" y2="26.6916"/>
      <line class="cls-1" x1="521.6289" y1="46.1445" x2="514.6956" y2="27.0957"/>
      <line class="cls-1" x1="514.6956" y1="27.0957" x2="506.8776" y2="17.7784"/>
      <line class="cls-1" x1="514.6956" y1="27.0957" x2="514.6956" y2="14.9329"/>
      <line class="cls-1" x1="521.6289" y1="46.1445" x2="504.0734" y2="36.0088"/>
      <line class="cls-1" x1="504.0734" y1="36.0088" x2="492.0954" y2="33.8968"/>
      <line class="cls-1" x1="504.0734" y1="36.0088" x2="496.2553" y2="26.6916"/>
      <line class="cls-1" x1="504.0734" y1="36.0088" x2="492.0954" y2="33.8968"/>
      <line class="cls-1" x1="492.0954" y1="33.8968" x2="484.9085" y2="35.164"/>
      <line class="cls-1" x1="492.0954" y1="33.8968" x2="485.7754" y2="30.2479"/>
      <line class="cls-1" x1="504.0734" y1="36.0088" x2="496.2553" y2="26.6916"/>
      <line class="cls-1" x1="496.2553" y1="26.6916" x2="489.9353" y2="23.0427"/>
      <line class="cls-1" x1="496.2553" y1="26.6916" x2="493.7593" y2="19.834"/>
      <line class="cls-1" x1="521.6289" y1="46.1445" x2="514.6956" y2="27.0957"/>
      <line class="cls-1" x1="514.6956" y1="27.0957" x2="506.8776" y2="17.7784"/>
      <line class="cls-1" x1="514.6956" y1="27.0957" x2="514.6956" y2="14.9329"/>
      <line class="cls-1" x1="514.6956" y1="27.0957" x2="506.8776" y2="17.7784"/>
      <line class="cls-1" x1="506.8776" y1="17.7784" x2="500.5576" y2="14.1296"/>
      <line class="cls-1" x1="506.8776" y1="17.7784" x2="504.3816" y2="10.9209"/>
      <line class="cls-1" x1="514.6956" y1="27.0957" x2="514.6956" y2="14.9329"/>
      <line class="cls-1" x1="514.6956" y1="14.9329" x2="512.1997" y2="8.0753"/>
      <line class="cls-1" x1="514.6956" y1="14.9329" x2="517.1916" y2="8.0753"/>
      <line class="cls-1" x1="543.3458" y1="72.0257" x2="543.3458" y2="38.2402"/>
      <line class="cls-1" x1="543.3458" y1="38.2402" x2="536.4126" y2="19.1914"/>
      <line class="cls-1" x1="543.3458" y1="38.2402" x2="550.2789" y2="19.1914"/>
      <line class="cls-1" x1="543.3458" y1="38.2402" x2="536.4126" y2="19.1914"/>
      <line class="cls-1" x1="536.4126" y1="19.1914" x2="528.5945" y2="9.8741"/>
      <line class="cls-1" x1="536.4126" y1="19.1914" x2="536.4126" y2="7.0286"/>
      <line class="cls-1" x1="543.3458" y1="38.2402" x2="550.2789" y2="19.1914"/>
      <line class="cls-1" x1="550.2789" y1="19.1914" x2="550.2789" y2="7.0286"/>
      <line class="cls-1" x1="550.2789" y1="19.1914" x2="558.097" y2="9.8741"/>
      <line class="cls-1" x1="543.3458" y1="38.2402" x2="536.4126" y2="19.1914"/>
      <line class="cls-1" x1="536.4126" y1="19.1914" x2="528.5945" y2="9.8741"/>
      <line class="cls-1" x1="536.4126" y1="19.1914" x2="536.4126" y2="7.0286"/>
      <line class="cls-1" x1="536.4126" y1="19.1914" x2="528.5945" y2="9.8741"/>
      <line class="cls-1" x1="528.5945" y1="9.8741" x2="522.2745" y2="6.2253"/>
      <line class="cls-1" x1="528.5945" y1="9.8741" x2="526.0985" y2="3.0165"/>
      <line class="cls-1" x1="536.4126" y1="19.1914" x2="536.4126" y2="7.0286"/>
      <line class="cls-1" x1="536.4126" y1="7.0286" x2="533.9166" y2="0.171"/>
      <line class="cls-1" x1="536.4126" y1="7.0286" x2="538.9085" y2="0.171"/>
      <line class="cls-1" x1="543.3458" y1="38.2402" x2="550.2789" y2="19.1914"/>
      <line class="cls-1" x1="550.2789" y1="19.1914" x2="550.2789" y2="7.0286"/>
      <line class="cls-1" x1="550.2789" y1="19.1914" x2="558.097" y2="9.8741"/>
      <line class="cls-1" x1="550.2789" y1="19.1914" x2="550.2789" y2="7.0286"/>
      <line class="cls-1" x1="550.2789" y1="7.0286" x2="547.783" y2="0.171"/>
      <line class="cls-1" x1="550.2789" y1="7.0286" x2="552.7749" y2="0.171"/>
      <line class="cls-1" x1="550.2789" y1="19.1914" x2="558.097" y2="9.8741"/>
      <line class="cls-1" x1="558.097" y1="9.8741" x2="560.593" y2="3.0165"/>
      <line class="cls-1" x1="558.097" y1="9.8741" x2="564.417" y2="6.2253"/>
      <line class="cls-1" x1="562.6047" y1="124.939" x2="581.8635" y2="72.0257"/>
      <line class="cls-1" x1="581.8635" y1="72.0257" x2="581.8635" y2="38.2402"/>
      <line class="cls-1" x1="581.8635" y1="72.0257" x2="603.5804" y2="46.1445"/>
      <line class="cls-1" x1="581.8635" y1="72.0257" x2="581.8635" y2="38.2402"/>
      <line class="cls-1" x1="581.8635" y1="38.2402" x2="574.9303" y2="19.1914"/>
      <line class="cls-1" x1="581.8635" y1="38.2402" x2="588.7967" y2="19.1914"/>
      <line class="cls-1" x1="581.8635" y1="72.0257" x2="603.5804" y2="46.1445"/>
      <line class="cls-1" x1="603.5804" y1="46.1445" x2="610.5137" y2="27.0957"/>
      <line class="cls-1" x1="603.5804" y1="46.1445" x2="621.1359" y2="36.0088"/>
      <line class="cls-1" x1="581.8635" y1="72.0257" x2="581.8635" y2="38.2402"/>
      <line class="cls-1" x1="581.8635" y1="38.2402" x2="574.9303" y2="19.1914"/>
      <line class="cls-1" x1="581.8635" y1="38.2402" x2="588.7967" y2="19.1914"/>
      <line class="cls-1" x1="581.8635" y1="38.2402" x2="574.9303" y2="19.1914"/>
      <line class="cls-1" x1="574.9303" y1="19.1914" x2="567.1122" y2="9.8741"/>
      <line class="cls-1" x1="574.9303" y1="19.1914" x2="574.9303" y2="7.0286"/>
      <line class="cls-1" x1="581.8635" y1="38.2402" x2="588.7967" y2="19.1914"/>
      <line class="cls-1" x1="588.7967" y1="19.1914" x2="588.7967" y2="7.0286"/>
      <line class="cls-1" x1="588.7967" y1="19.1914" x2="596.6148" y2="9.8741"/>
      <line class="cls-1" x1="581.8635" y1="72.0257" x2="603.5804" y2="46.1445"/>
      <line class="cls-1" x1="603.5804" y1="46.1445" x2="610.5137" y2="27.0957"/>
      <line class="cls-1" x1="603.5804" y1="46.1445" x2="621.1359" y2="36.0088"/>
      <line class="cls-1" x1="603.5804" y1="46.1445" x2="610.5137" y2="27.0957"/>
      <line class="cls-1" x1="610.5137" y1="27.0957" x2="610.5137" y2="14.9329"/>
      <line class="cls-1" x1="610.5137" y1="27.0957" x2="618.3317" y2="17.7784"/>
      <line class="cls-1" x1="603.5804" y1="46.1445" x2="621.1359" y2="36.0088"/>
      <line class="cls-1" x1="621.1359" y1="36.0088" x2="628.954" y2="26.6916"/>
      <line class="cls-1" x1="621.1359" y1="36.0088" x2="633.1139" y2="33.8968"/>
      <line class="cls-1" x1="581.8635" y1="72.0257" x2="581.8635" y2="38.2402"/>
      <line class="cls-1" x1="581.8635" y1="38.2402" x2="574.9303" y2="19.1914"/>
      <line class="cls-1" x1="581.8635" y1="38.2402" x2="588.7967" y2="19.1914"/>
      <line class="cls-1" x1="581.8635" y1="38.2402" x2="574.9303" y2="19.1914"/>
      <line class="cls-1" x1="574.9303" y1="19.1914" x2="567.1122" y2="9.8741"/>
      <line class="cls-1" x1="574.9303" y1="19.1914" x2="574.9303" y2="7.0286"/>
      <line class="cls-1" x1="581.8635" y1="38.2402" x2="588.7967" y2="19.1914"/>
      <line class="cls-1" x1="588.7967" y1="19.1914" x2="588.7967" y2="7.0286"/>
      <line class="cls-1" x1="588.7967" y1="19.1914" x2="596.6148" y2="9.8741"/>
      <line class="cls-1" x1="581.8635" y1="38.2402" x2="574.9303" y2="19.1914"/>
      <line class="cls-1" x1="574.9303" y1="19.1914" x2="567.1122" y2="9.8741"/>
      <line class="cls-1" x1="574.9303" y1="19.1914" x2="574.9303" y2="7.0286"/>
      <line class="cls-1" x1="574.9303" y1="19.1914" x2="567.1122" y2="9.8741"/>
      <line class="cls-1" x1="567.1122" y1="9.8741" x2="560.7922" y2="6.2253"/>
      <line class="cls-1" x1="567.1122" y1="9.8741" x2="564.6163" y2="3.0165"/>
      <line class="cls-1" x1="574.9303" y1="19.1914" x2="574.9303" y2="7.0286"/>
      <line class="cls-1" x1="574.9303" y1="7.0286" x2="572.4344" y2="0.171"/>
      <line class="cls-1" x1="574.9303" y1="7.0286" x2="577.4263" y2="0.171"/>
      <line class="cls-1" x1="581.8635" y1="38.2402" x2="588.7967" y2="19.1914"/>
      <line class="cls-1" x1="588.7967" y1="19.1914" x2="588.7967" y2="7.0286"/>
      <line class="cls-1" x1="588.7967" y1="19.1914" x2="596.6148" y2="9.8741"/>
      <line class="cls-1" x1="588.7967" y1="19.1914" x2="588.7967" y2="7.0286"/>
      <line class="cls-1" x1="588.7967" y1="7.0286" x2="586.3008" y2="0.171"/>
      <line class="cls-1" x1="588.7967" y1="7.0286" x2="591.2927" y2="0.171"/>
      <line class="cls-1" x1="588.7967" y1="19.1914" x2="596.6148" y2="9.8741"/>
      <line class="cls-1" x1="596.6148" y1="9.8741" x2="599.1108" y2="3.0165"/>
      <line class="cls-1" x1="596.6148" y1="9.8741" x2="602.9348" y2="6.2253"/>
      <line class="cls-1" x1="581.8635" y1="72.0257" x2="603.5804" y2="46.1445"/>
      <line class="cls-1" x1="603.5804" y1="46.1445" x2="610.5137" y2="27.0957"/>
      <line class="cls-1" x1="603.5804" y1="46.1445" x2="621.1359" y2="36.0088"/>
      <line class="cls-1" x1="603.5804" y1="46.1445" x2="610.5137" y2="27.0957"/>
      <line class="cls-1" x1="610.5137" y1="27.0957" x2="610.5137" y2="14.9329"/>
      <line class="cls-1" x1="610.5137" y1="27.0957" x2="618.3317" y2="17.7784"/>
      <line class="cls-1" x1="603.5804" y1="46.1445" x2="621.1359" y2="36.0088"/>
      <line class="cls-1" x1="621.1359" y1="36.0088" x2="628.954" y2="26.6916"/>
      <line class="cls-1" x1="621.1359" y1="36.0088" x2="633.1139" y2="33.8968"/>
      <line class="cls-1" x1="603.5804" y1="46.1445" x2="610.5137" y2="27.0957"/>
      <line class="cls-1" x1="610.5137" y1="27.0957" x2="610.5137" y2="14.9329"/>
      <line class="cls-1" x1="610.5137" y1="27.0957" x2="618.3317" y2="17.7784"/>
      <line class="cls-1" x1="610.5137" y1="27.0957" x2="610.5137" y2="14.9329"/>
      <line class="cls-1" x1="610.5137" y1="14.9329" x2="608.0177" y2="8.0753"/>
      <line class="cls-1" x1="610.5137" y1="14.9329" x2="613.0096" y2="8.0753"/>
      <line class="cls-1" x1="610.5137" y1="27.0957" x2="618.3317" y2="17.7784"/>
      <line class="cls-1" x1="618.3317" y1="17.7784" x2="620.8277" y2="10.9209"/>
      <line class="cls-1" x1="618.3317" y1="17.7784" x2="624.6517" y2="14.1296"/>
      <line class="cls-1" x1="603.5804" y1="46.1445" x2="621.1359" y2="36.0088"/>
      <line class="cls-1" x1="621.1359" y1="36.0088" x2="628.954" y2="26.6916"/>
      <line class="cls-1" x1="621.1359" y1="36.0088" x2="633.1139" y2="33.8968"/>
      <line class="cls-1" x1="621.1359" y1="36.0088" x2="628.954" y2="26.6916"/>
      <line class="cls-1" x1="628.954" y1="26.6916" x2="631.45" y2="19.834"/>
      <line class="cls-1" x1="628.954" y1="26.6916" x2="635.274" y2="23.0427"/>
      <line class="cls-1" x1="621.1359" y1="36.0088" x2="633.1139" y2="33.8968"/>
      <line class="cls-1" x1="633.1139" y1="33.8968" x2="639.4339" y2="30.2479"/>
      <line class="cls-1" x1="633.1139" y1="33.8968" x2="640.3008" y2="35.164"/>
    </g>
  </g>
  <text class="cls-2" transform="translate(0 229.2667)">stage 0</text>
  <text class="cls-2" transform="translate(50.8013 229.2667)">stage 1</text>
  <text class="cls-2" transform="translate(130.4487 229.2667)">stage 2</text>
  <text class="cls-2" transform="translate(248.23 229.2667)">stage 3</text>
  <text class="cls-2" transform="translate(387.5952 229.2667)">stage 4</text>
  <text class="cls-2" transform="translate(542.9146 229.2667)">stage 5</text>
</svg>
